<?xml version="1.0" encoding="utf-8"?>
<!-- Generator: Adobe Illustrator 18.1.1, SVG Export Plug-In . SVG Version: 6.00 Build 0)  -->
<svg version="1.1" id="Layer_1" xmlns="http://www.w3.org/2000/svg" xmlns:xlink="http://www.w3.org/1999/xlink" x="0px" y="0px"
	 viewBox="0 0 211 225.1" enable-background="new 0 0 211 225.1" xml:space="preserve">
<g>
	<g>
		<g>
			<polygon fill="#29ABE2" points="180,174.6 31.1,174.6 74,100.4 84.9,81.6 105.6,45.7 126.3,81.6 137.2,100.4 			"/>
		</g>
		<g>
			<path fill="#010042" d="M180,176H31.1c-0.5,0-0.9-0.3-1.2-0.7c-0.2-0.4-0.2-1,0-1.4L104.4,45c0.2-0.4,0.7-0.7,1.2-0.7l0,0
				c0.5,0,0.9,0.3,1.2,0.7l74.4,128.9c0.2,0.4,0.2,1,0,1.4C181,175.7,180.5,176,180,176z M33.5,173.3h144.1L105.6,48.4L33.5,173.3z"
				/>
		</g>
	</g>
	<g>
		<circle fill="#FFFFFF" cx="105.6" cy="131" r="28.1"/>
		<path fill="#010042" d="M105.6,160.5c-16.3,0-29.5-13.2-29.5-29.5c0-16.3,13.2-29.5,29.5-29.5s29.5,13.2,29.5,29.5
			C135.1,147.2,121.9,160.5,105.6,160.5z M105.6,104.2c-14.8,0-26.8,12-26.8,26.8c0,14.8,12,26.8,26.8,26.8s26.8-12,26.8-26.8
			C132.3,116.2,120.3,104.2,105.6,104.2z"/>
	</g>
	<g>
		<circle fill="#010042" cx="105.6" cy="131" r="10.1"/>
	</g>
	<g>
		<path fill="#FFFFFF" d="M84.9,81.6L74,100.4H45.2c2.1-2.6,3.3-5.8,3.3-9.4c0-3.6-1.2-6.8-3.3-9.4H84.9z"/>
		<path fill="#010042" d="M74,101.7H45.2c-0.5,0-1-0.3-1.2-0.8c-0.2-0.5-0.2-1,0.2-1.5c2-2.5,3-5.4,3-8.5c0-3.1-1-6.1-3-8.5
			c-0.3-0.4-0.4-1-0.2-1.5c0.2-0.5,0.7-0.8,1.2-0.8h39.7c0.5,0,0.9,0.3,1.2,0.7s0.2,0.9,0,1.4l-10.9,18.8
			C75,101.5,74.5,101.7,74,101.7z M47.8,99h25.4l9.3-16.1H47.8c1.4,2.4,2.1,5.2,2.1,8C49.9,93.8,49.2,96.6,47.8,99z"/>
	</g>
	<g>
		<g>
			<path fill="#FFFFFF" d="M42.8,39.7v39.5c-2.6-2.1-5.9-3.3-9.4-3.3c-3.6,0-6.8,1.2-9.4,3.3V39.7c0.9,0.6,2,1.2,3,1.6
				c2,0.8,4.1,1.2,6.4,1.2c2,0,4-0.3,5.8-1C40.5,41.1,41.7,40.5,42.8,39.7z"/>
			<path fill="#010042" d="M24,80.6c-0.2,0-0.4,0-0.6-0.1c-0.5-0.2-0.8-0.7-0.8-1.2V39.7c0-0.5,0.3-1,0.7-1.2c0.4-0.2,1-0.2,1.4,0.1
				c0.9,0.6,1.8,1.1,2.8,1.4c3.6,1.4,7.6,1.5,11.2,0.2c1.2-0.4,2.3-1,3.4-1.7c0.4-0.3,1-0.3,1.4-0.1c0.4,0.2,0.7,0.7,0.7,1.2v39.5
				c0,0.5-0.3,1-0.8,1.2c-0.5,0.2-1,0.2-1.5-0.2c-2.4-1.9-5.5-3-8.5-3c-3.1,0-6.1,1-8.5,3C24.6,80.5,24.3,80.6,24,80.6z M33.4,74.5
				c2.8,0,5.6,0.7,8,2.1V42.1c-0.6,0.3-1.2,0.5-1.8,0.7c-4.2,1.5-8.8,1.4-13.1-0.2c-0.4-0.2-0.8-0.3-1.2-0.5v34.5
				C27.8,75.2,30.6,74.5,33.4,74.5z"/>
		</g>
		<g>
			<g>
				<path fill="#29ABE2" d="M48.5,91c0,3.6-1.2,6.8-3.3,9.4c-2.8,3.4-7,5.7-11.8,5.7c-8.3,0-15.1-6.7-15.1-15.1
					c0-4.8,2.2-9,5.7-11.7c2.6-2.1,5.8-3.3,9.4-3.3c3.6,0,6.8,1.2,9.4,3.3c0.9,0.7,1.7,1.5,2.3,2.3C47.3,84.1,48.5,87.4,48.5,91z"/>
			</g>
			<g>
				<path fill="#010042" d="M33.4,107.4C24.4,107.4,17,100,17,91c0-5,2.2-9.7,6.2-12.8c2.9-2.4,6.5-3.6,10.3-3.6
					c3.7,0,7.4,1.3,10.3,3.6c0.9,0.7,1.8,1.6,2.6,2.6c2.4,2.9,3.6,6.5,3.6,10.3c0,3.8-1.2,7.3-3.6,10.3
					C43.1,105.2,38.5,107.4,33.4,107.4z M33.4,77.3c-3.1,0-6.1,1-8.5,3c-3.3,2.6-5.1,6.5-5.1,10.7c0,7.5,6.1,13.7,13.7,13.7
					c4.2,0,8.1-1.9,10.7-5.1c2-2.5,3-5.4,3-8.5c0-3.1-1-6.1-3-8.5c-0.6-0.8-1.3-1.5-2.1-2.1C39.6,78.3,36.5,77.3,33.4,77.3z"/>
			</g>
		</g>
		<g>
			<path fill="#FFFFFF" d="M50.7,25.2c0,6.1-3.1,11.4-7.9,14.5c-1.1,0.7-2.3,1.3-3.6,1.8c-1.8,0.6-3.7,1-5.8,1
				c-2.2,0-4.4-0.4-6.4-1.2c-1.1-0.4-2.1-1-3-1.6c-4.7-3.1-7.9-8.4-7.9-14.5c0-6.6,3.7-12.3,9.1-15.2v16.7h16.4V10
				C47,12.9,50.7,18.6,50.7,25.2z"/>
			<path fill="#010042" d="M33.4,43.9c-2.3,0-4.6-0.4-6.9-1.3c-1.2-0.5-2.3-1-3.3-1.7c-5.3-3.5-8.5-9.3-8.5-15.6
				c0-6.9,3.8-13.2,9.8-16.4c0.4-0.2,0.9-0.2,1.4,0c0.4,0.2,0.7,0.7,0.7,1.2v15.4h13.6V10c0-0.5,0.3-0.9,0.7-1.2
				c0.4-0.2,0.9-0.3,1.4,0c6.1,3.2,9.8,9.5,9.8,16.4c0,6.3-3.2,12.2-8.5,15.7c-1.2,0.8-2.6,1.5-3.9,1.9
				C37.6,43.5,35.6,43.9,33.4,43.9z M23.9,12.5c-4,3-6.3,7.7-6.3,12.7c0,5.4,2.7,10.4,7.2,13.3c0.9,0.6,1.8,1.1,2.8,1.5
				c3.6,1.4,7.6,1.5,11.2,0.2c1.2-0.4,2.3-1,3.4-1.7c4.5-3,7.3-7.9,7.3-13.3c0-5.1-2.4-9.7-6.3-12.7v14.2c0,0.8-0.6,1.4-1.4,1.4
				H25.2c-0.8,0-1.4-0.6-1.4-1.4V12.5z"/>
		</g>
	</g>
	<g>
		<path fill="#FFFFFF" d="M162.5,91c0,3.6,1.2,6.8,3.3,9.4h-28.6l-10.9-18.8h39.5C163.7,84.1,162.5,87.4,162.5,91z"/>
		<path fill="#010042" d="M165.8,101.7h-28.6c-0.5,0-0.9-0.3-1.2-0.7l-10.9-18.8c-0.2-0.4-0.2-1,0-1.4c0.2-0.4,0.7-0.7,1.2-0.7h39.5
			c0.5,0,1,0.3,1.2,0.8c0.2,0.5,0.2,1-0.2,1.5c-2,2.4-3,5.4-3,8.5c0,3.1,1,6.1,3,8.5c0.3,0.4,0.4,1,0.2,1.5
			C166.8,101.4,166.3,101.7,165.8,101.7z M138,99h25.3c-1.4-2.4-2.1-5.2-2.1-8c0-2.9,0.7-5.6,2.1-8h-34.5L138,99z"/>
	</g>
	<g>
		<path fill="#FFFFFF" d="M168.2,39.7v39.5c2.6-2.1,5.9-3.3,9.4-3.3c3.6,0,6.8,1.2,9.4,3.3V39.7c-0.9,0.6-2,1.2-3,1.6
			c-2,0.8-4.1,1.2-6.4,1.2c-2,0-4-0.3-5.8-1C170.5,41.1,169.3,40.5,168.2,39.7z"/>
		<path fill="#010042" d="M187,80.6c-0.3,0-0.6-0.1-0.9-0.3c-2.4-2-5.4-3-8.5-3c-3.1,0-6.1,1.1-8.5,3c-0.4,0.3-1,0.4-1.5,0.2
			c-0.5-0.2-0.8-0.7-0.8-1.2V39.7c0-0.5,0.3-1,0.7-1.2c0.4-0.2,1-0.2,1.4,0.1c1,0.7,2.2,1.2,3.4,1.7c3.6,1.3,7.5,1.2,11.2-0.2
			c1-0.4,1.9-0.9,2.8-1.4c0.4-0.3,1-0.3,1.4-0.1c0.4,0.2,0.7,0.7,0.7,1.2v39.5c0,0.5-0.3,1-0.8,1.2C187.4,80.6,187.2,80.6,187,80.6z
			 M169.5,42.1v34.6c2.4-1.4,5.2-2.1,8-2.1c2.9,0,5.6,0.7,8,2.1V42.1c-0.4,0.2-0.8,0.3-1.2,0.5c-4.3,1.7-8.9,1.7-13.1,0.2
			C170.7,42.6,170.1,42.4,169.5,42.1z"/>
	</g>
	<g>
		<g>
			<path fill="#29ABE2" d="M162.5,91c0,3.6,1.2,6.8,3.3,9.4c2.8,3.4,7,5.7,11.8,5.7c8.3,0,15.1-6.7,15.1-15.1c0-4.8-2.2-9-5.7-11.7
				c-2.6-2.1-5.8-3.3-9.4-3.3c-3.6,0-6.8,1.2-9.4,3.3c-0.9,0.7-1.7,1.5-2.3,2.3C163.7,84.1,162.5,87.4,162.5,91z"/>
		</g>
		<g>
			<path fill="#010042" d="M177.6,107.4c-5,0-9.7-2.3-12.8-6.2c-2.4-2.9-3.6-6.5-3.6-10.3c0-3.8,1.3-7.3,3.6-10.3
				c0.7-0.9,1.6-1.8,2.6-2.6c2.9-2.3,6.5-3.6,10.3-3.6c3.8,0,7.3,1.3,10.3,3.6c3.9,3.1,6.2,7.8,6.2,12.8
				C194,100,186.6,107.4,177.6,107.4z M177.6,77.3c-3.1,0-6.1,1.1-8.5,3c-0.8,0.6-1.5,1.3-2.1,2.1c-2,2.5-3,5.4-3,8.6
				c0,3.1,1,6.1,3,8.5c2.6,3.3,6.5,5.1,10.7,5.1c7.5,0,13.7-6.1,13.7-13.7c0-4.2-1.9-8.1-5.1-10.7C183.7,78.3,180.7,77.3,177.6,77.3
				z"/>
		</g>
	</g>
	<g>
		<path fill="#FFFFFF" d="M160.3,25.2c0,6.1,3.1,11.4,7.9,14.5c1.1,0.7,2.3,1.3,3.6,1.8c1.8,0.6,3.7,1,5.8,1c2.2,0,4.4-0.4,6.4-1.2
			c1.1-0.4,2.1-1,3-1.6c4.7-3.1,7.9-8.4,7.9-14.5c0-6.6-3.7-12.3-9.1-15.2v16.7h-16.4V10C164,12.9,160.3,18.6,160.3,25.2z"/>
		<path fill="#010042" d="M177.6,43.9c-2.1,0-4.2-0.4-6.2-1.1c-1.4-0.5-2.7-1.1-3.9-1.9c-5.3-3.5-8.5-9.3-8.5-15.7
			c0-6.9,3.8-13.2,9.8-16.4c0.4-0.2,0.9-0.2,1.4,0c0.4,0.2,0.7,0.7,0.7,1.2v15.4h13.6V10c0-0.5,0.3-0.9,0.7-1.2
			c0.4-0.2,0.9-0.3,1.4,0c6.1,3.2,9.8,9.5,9.8,16.4c0,6.3-3.2,12.2-8.5,15.7c-1,0.7-2.1,1.3-3.3,1.7
			C182.2,43.5,179.9,43.9,177.6,43.9z M168,12.5c-4,3-6.3,7.7-6.3,12.7c0,5.4,2.7,10.4,7.3,13.3c1,0.7,2.2,1.2,3.4,1.7
			c3.6,1.3,7.5,1.2,11.2-0.2c1-0.4,1.9-0.9,2.8-1.4c4.5-3,7.3-7.9,7.3-13.3c0-5.1-2.4-9.7-6.3-12.7v14.2c0,0.8-0.6,1.4-1.4,1.4
			h-16.4c-0.8,0-1.4-0.6-1.4-1.4V12.5z"/>
	</g>
	<g>
		<path fill="#FFFFFF" d="M93.5,174.6v35c-3.3-3.1-7.7-4.9-12.5-4.9c-4.8,0-9.2,1.9-12.5,4.9v-35H93.5z"/>
		<path fill="#010042" d="M93.5,211c-0.3,0-0.7-0.1-0.9-0.4c-3.2-2.9-7.3-4.6-11.6-4.6c-4.3,0-8.4,1.6-11.6,4.6
			c-0.4,0.4-1,0.5-1.5,0.3c-0.5-0.2-0.8-0.7-0.8-1.3v-35c0-0.8,0.6-1.4,1.4-1.4h25c0.8,0,1.4,0.6,1.4,1.4v35c0,0.5-0.3,1-0.8,1.3
			C93.9,211,93.7,211,93.5,211z M81,203.3c4,0,7.9,1.2,11.2,3.5V176H69.9v30.8C73.1,204.5,77,203.3,81,203.3z"/>
	</g>
	<g>
		<g>
			<path fill="#29ABE2" d="M99.4,223H62.6c0-5.3,2.2-10.1,5.8-13.4c3.3-3.1,7.7-4.9,12.5-4.9c4.8,0,9.2,1.9,12.5,4.9
				C97.1,213,99.4,217.7,99.4,223z"/>
		</g>
		<g>
			<path fill="#010042" d="M99.4,224.4H62.6c-0.8,0-1.4-0.6-1.4-1.4c0-5.5,2.3-10.7,6.3-14.4c3.7-3.4,8.4-5.3,13.4-5.3
				c5,0,9.8,1.9,13.5,5.3c4,3.7,6.3,9,6.3,14.4C100.7,223.8,100.1,224.4,99.4,224.4z M64.1,221.7h33.9c-0.3-4.2-2.2-8.1-5.3-11
				c-3.2-2.9-7.3-4.6-11.6-4.6c-4.3,0-8.4,1.6-11.6,4.6C66.3,213.6,64.4,217.4,64.1,221.7z"/>
		</g>
	</g>
	<g>
		<path fill="#FFFFFF" d="M142.6,174.6v35c-3.3-3.1-7.7-4.9-12.5-4.9c-4.8,0-9.2,1.9-12.5,4.9v-35H142.6z"/>
		<path fill="#010042" d="M142.6,211c-0.3,0-0.7-0.1-0.9-0.4c-3.2-2.9-7.3-4.6-11.6-4.6c-4.3,0-8.4,1.6-11.6,4.6
			c-0.4,0.4-1,0.5-1.5,0.3c-0.5-0.2-0.8-0.7-0.8-1.3v-35c0-0.8,0.6-1.4,1.4-1.4h25c0.8,0,1.4,0.6,1.4,1.4v35c0,0.5-0.3,1-0.8,1.3
			C143,211,142.8,211,142.6,211z M130.1,203.3c4,0,7.9,1.2,11.2,3.5V176H119v30.8C122.2,204.5,126.1,203.3,130.1,203.3z"/>
	</g>
	<g>
		<g>
			<path fill="#29ABE2" d="M148.5,223h-36.7c0-5.3,2.2-10.1,5.8-13.4c3.3-3.1,7.7-4.9,12.5-4.9c4.8,0,9.2,1.9,12.5,4.9
				C146.3,213,148.5,217.7,148.5,223z"/>
		</g>
		<g>
			<path fill="#010042" d="M148.5,224.4h-36.7c-0.8,0-1.4-0.6-1.4-1.4c0-5.5,2.3-10.7,6.3-14.4c3.7-3.4,8.4-5.3,13.4-5.3
				c5,0,9.8,1.9,13.5,5.3c4,3.7,6.3,9,6.3,14.4C149.9,223.8,149.3,224.4,148.5,224.4z M113.2,221.7h33.9c-0.3-4.2-2.2-8.1-5.3-11
				c-3.2-2.9-7.3-4.6-11.6-4.6c-4.3,0-8.4,1.6-11.6,4.6C115.4,213.6,113.6,217.4,113.2,221.7z"/>
		</g>
	</g>
	<g>
		<path fill="#FFFFFF" d="M68.5,192.1h25H68.5z"/>
		<path fill="#010042" d="M93.5,193.5h-25c-0.8,0-1.4-0.6-1.4-1.4c0-0.8,0.6-1.4,1.4-1.4h25c0.8,0,1.4,0.6,1.4,1.4
			C94.9,192.9,94.3,193.5,93.5,193.5z"/>
	</g>
	<g>
		<path fill="#FFFFFF" d="M117.6,192.1h25H117.6z"/>
		<path fill="#010042" d="M142.6,193.5h-25c-0.8,0-1.4-0.6-1.4-1.4c0-0.8,0.6-1.4,1.4-1.4h25c0.8,0,1.4,0.6,1.4,1.4
			C144,192.9,143.4,193.5,142.6,193.5z"/>
	</g>
</g>
</svg>
