<svg xmlns="http://www.w3.org/2000/svg"
     viewBox="0.142009 1 2.741 3">
  <path d="M 1 1 L 2 1 L 2 1.5 L 1 1.5 L 1 1 M 1.4 1.5 L 1.4 1.7 L 1.6 1.7 L 1.6 1.5 M 0.5 1.7 L 2.5 1.7 L 2.5 2 L 2 2 L 2 3 L 1 3 L 1 2 L 0.5 2 L 0.5 1.7 M 1.4 3 L 1.6 3 L 1.6 3.5 L 1.4 3.5 L 1.4 3 M 0.5 2.3 L 0.4 2.3 L 0.4 1.7 L 0.5 1.7 L 0.5 2.3 M 2.6 2.3 L 2.5 2.3 L 2.5 1.7 L 2.6 1.7 L 2.6 2.3 M 1.5 3.5 C 1 3.5 1 4 1.5 4 C 2 4 2 3.5 1.5 3.5 M 0.822 2.99 C 0.865 2.143 0.111 2.005 0.143 2.984 L 0.248 2.983 C 0.248 2.216 0.705 2.194 0.71 2.983 M 2.881 2.992 C 2.929 2.13 2.166 2.026 2.231 2.984 L 2.357 2.984 C 2.351 2.23 2.76 2.23 2.765 2.99" fill="#000000"/>
</svg>