<?xml version="1.0" encoding="utf-8"?>
<!-- Generator: Adobe Illustrator 18.1.1, SVG Export Plug-In . SVG Version: 6.00 Build 0)  -->
<svg version="1.1" id="Layer_1" xmlns="http://www.w3.org/2000/svg" xmlns:xlink="http://www.w3.org/1999/xlink" x="0px" y="0px"
	 viewBox="0 0 211 225.1" enable-background="new 0 0 211 225.1" xml:space="preserve">
<g>
	<g>
		<g>
			<rect x="72.2" y="60.3" fill="#29ABE2" width="66.6" height="100.7"/>
		</g>
		<g>
			<path fill="#010042" d="M138.8,162.4H72.2c-0.8,0-1.4-0.6-1.4-1.4V60.3c0-0.8,0.6-1.4,1.4-1.4h66.6c0.8,0,1.4,0.6,1.4,1.4V161
				C140.2,161.8,139.6,162.4,138.8,162.4z M73.6,159.6h63.9V61.7H73.6V159.6z"/>
		</g>
	</g>
	<g>
		<g>
			<rect x="86.6" y="75.1" fill="#FFFFFF" width="36.6" height="18.8"/>
		</g>
		<g>
			<path fill="#010042" d="M123.3,95.3H86.6c-0.8,0-1.4-0.6-1.4-1.4V75.1c0-0.8,0.6-1.4,1.4-1.4h36.6c0.8,0,1.4,0.6,1.4,1.4v18.8
				C124.6,94.7,124,95.3,123.3,95.3z M88,92.5h33.9V76.5H88V92.5z"/>
		</g>
	</g>
	<g>
		<g>
			<path fill="#29ABE2" d="M72.5,127h66.3H72.5z"/>
		</g>
		<g>
			<path fill="#010042" d="M138.8,128.3H72.5c-0.8,0-1.4-0.6-1.4-1.4c0-0.8,0.6-1.4,1.4-1.4h66.3c0.8,0,1.4,0.6,1.4,1.4
				C140.2,127.7,139.6,128.3,138.8,128.3z"/>
		</g>
	</g>
	<g>
		<g>
			<g>
				<rect x="46.7" y="60.3" fill="#FFFFFF" width="25.5" height="24.2"/>
			</g>
			<g>
				<path fill="#010042" d="M72.2,85.9H46.7c-0.8,0-1.4-0.6-1.4-1.4V60.3c0-0.8,0.6-1.4,1.4-1.4h25.5c0.8,0,1.4,0.6,1.4,1.4v24.2
					C73.6,85.2,72.9,85.9,72.2,85.9z M48.1,83.1h22.7V61.7H48.1V83.1z"/>
			</g>
		</g>
		<g>
			<path fill="#010042" d="M46.7,73.8H36.1c-0.8,0-1.4-0.6-1.4-1.4c0-0.8,0.6-1.4,1.4-1.4h10.6c0.8,0,1.4,0.6,1.4,1.4
				C48.1,73.2,47.5,73.8,46.7,73.8z"/>
		</g>
		<g>
			<path fill="#010042" d="M36.1,115.5c-0.8,0-1.4-0.6-1.4-1.4V72.4c0-0.8,0.6-1.4,1.4-1.4s1.4,0.6,1.4,1.4v41.7
				C37.5,114.8,36.9,115.5,36.1,115.5z"/>
		</g>
		<g>
			<path fill="#010042" d="M46.7,133.9c-0.8,0-1.4-0.6-1.4-1.4V121l-9.2-5.3l-9.2,5.3v11.5c0,0.8-0.6,1.4-1.4,1.4
				c-0.8,0-1.4-0.6-1.4-1.4v-12.3c0-0.5,0.3-0.9,0.7-1.2l10.6-6.1c0.4-0.2,1-0.2,1.4,0l10.6,6.1c0.4,0.2,0.7,0.7,0.7,1.2v12.3
				C48.1,133.2,47.5,133.9,46.7,133.9z"/>
		</g>
	</g>
	<g>
		<g>
			<g>
				<rect x="138.8" y="60.3" fill="#FFFFFF" width="25.5" height="24.2"/>
			</g>
			<g>
				<path fill="#010042" d="M164.3,85.9h-25.5c-0.8,0-1.4-0.6-1.4-1.4V60.3c0-0.8,0.6-1.4,1.4-1.4h25.5c0.8,0,1.4,0.6,1.4,1.4v24.2
					C165.7,85.2,165,85.9,164.3,85.9z M140.2,83.1h22.7V61.7h-22.7V83.1z"/>
			</g>
		</g>
		<g>
			<path fill="#010042" d="M174.9,73.8h-10.6c-0.8,0-1.4-0.6-1.4-1.4c0-0.8,0.6-1.4,1.4-1.4h10.6c0.8,0,1.4,0.6,1.4,1.4
				C176.3,73.2,175.7,73.8,174.9,73.8z"/>
		</g>
		<g>
			<path fill="#010042" d="M174.9,115.5c-0.8,0-1.4-0.6-1.4-1.4V72.4c0-0.8,0.6-1.4,1.4-1.4c0.8,0,1.4,0.6,1.4,1.4v41.7
				C176.3,114.8,175.7,115.5,174.9,115.5z"/>
		</g>
		<g>
			<path fill="#010042" d="M185.5,133.9c-0.8,0-1.4-0.6-1.4-1.4V121l-9.2-5.3l-9.2,5.3v11.5c0,0.8-0.6,1.4-1.4,1.4
				c-0.8,0-1.4-0.6-1.4-1.4v-12.3c0-0.5,0.3-0.9,0.7-1.2l10.6-6.1c0.4-0.2,1-0.2,1.4,0l10.6,6.1c0.4,0.2,0.7,0.7,0.7,1.2v12.3
				C186.9,133.2,186.3,133.9,185.5,133.9z"/>
		</g>
	</g>
	<g>
		<g>
			<path fill="#010042" d="M104.9,186.2c-0.8,0-1.4-0.6-1.4-1.4V161c0-0.8,0.6-1.4,1.4-1.4s1.4,0.6,1.4,1.4v23.8
				C106.3,185.6,105.7,186.2,104.9,186.2z"/>
		</g>
		<g>
			<g>
				<circle fill="#29ABE2" cx="104.9" cy="202" r="17.2"/>
			</g>
			<g>
				<path fill="#010042" d="M104.9,220.6c-10.2,0-18.6-8.3-18.6-18.6s8.3-18.6,18.6-18.6s18.6,8.3,18.6,18.6
					S115.2,220.6,104.9,220.6z M104.9,186.2c-8.7,0-15.8,7.1-15.8,15.8c0,8.7,7.1,15.8,15.8,15.8s15.8-7.1,15.8-15.8
					C120.7,193.3,113.7,186.2,104.9,186.2z"/>
			</g>
		</g>
		<g>
			<circle fill="#FFFFFF" cx="104.9" cy="202" r="8.4"/>
			<path fill="#010042" d="M104.9,211.9c-5.4,0-9.8-4.4-9.8-9.8c0-5.4,4.4-9.8,9.8-9.8c5.4,0,9.8,4.4,9.8,9.8
				C114.7,207.5,110.3,211.9,104.9,211.9z M104.9,195c-3.9,0-7.1,3.2-7.1,7.1c0,3.9,3.2,7.1,7.1,7.1c3.9,0,7.1-3.2,7.1-7.1
				C112,198.2,108.8,195,104.9,195z"/>
		</g>
	</g>
	<g>
		<g>
			<rect x="72.2" y="7.9" fill="#29ABE2" width="66.6" height="29.8"/>
		</g>
		<g>
			<path fill="#010042" d="M138.8,39.1H72.2c-0.8,0-1.4-0.6-1.4-1.4V7.9c0-0.8,0.6-1.4,1.4-1.4h66.6c0.8,0,1.4,0.6,1.4,1.4v29.8
				C140.2,38.5,139.6,39.1,138.8,39.1z M73.6,36.3h63.9V9.2H73.6V36.3z"/>
		</g>
	</g>
	<g>
		<g>
			<rect x="95.2" y="37.7" fill="#FFFFFF" width="20.6" height="22.6"/>
		</g>
		<g>
			<path fill="#010042" d="M115.8,61.7H95.2c-0.8,0-1.4-0.6-1.4-1.4V37.7c0-0.8,0.6-1.4,1.4-1.4h20.6c0.8,0,1.4,0.6,1.4,1.4v22.6
				C117.2,61.1,116.6,61.7,115.8,61.7z M96.6,59h17.8V39.1H96.6V59z"/>
		</g>
	</g>
	<g>
		<circle fill="#FFFFFF" cx="105.5" cy="22.8" r="9.9"/>
		<path fill="#010042" d="M105.5,34.1c-6.2,0-11.3-5.1-11.3-11.3s5.1-11.3,11.3-11.3c6.2,0,11.3,5.1,11.3,11.3
			S111.7,34.1,105.5,34.1z M105.5,14.3c-4.7,0-8.5,3.8-8.5,8.5s3.8,8.5,8.5,8.5s8.5-3.8,8.5-8.5S110.2,14.3,105.5,14.3z"/>
	</g>
	<g>
		<circle fill="#010042" cx="105.5" cy="22.8" r="4.4"/>
	</g>
</g>
</svg>
