<?xml version="1.0" encoding="utf-8"?>
<!-- Generator: Adobe Illustrator 18.1.1, SVG Export Plug-In . SVG Version: 6.00 Build 0)  -->
<svg version="1.1" id="Layer_1" xmlns="http://www.w3.org/2000/svg" xmlns:xlink="http://www.w3.org/1999/xlink" x="0px" y="0px"
	 viewBox="0 0 211 225.1" enable-background="new 0 0 211 225.1" xml:space="preserve">
<g>
	<g>
		<g>
			<g>
				<rect x="68.9" y="85.6" fill="#29ABE2" width="74.1" height="86.1"/>
			</g>
			<g>
				<path fill="#010042" d="M143.1,173.2H68.9c-0.8,0-1.4-0.6-1.4-1.4V85.6c0-0.8,0.6-1.4,1.4-1.4h74.1c0.8,0,1.4,0.6,1.4,1.4v86.1
					C144.4,172.6,143.8,173.2,143.1,173.2z M70.3,170.4h71.4V87H70.3V170.4z"/>
			</g>
		</g>
		<g>
			<rect x="80" y="85.6" fill="#FFFFFF" width="52.1" height="73.1"/>
			<path fill="#010042" d="M132,160.1H80c-0.8,0-1.4-0.6-1.4-1.4V85.6c0-0.8,0.6-1.4,1.4-1.4H132c0.8,0,1.4,0.6,1.4,1.4v73.1
				C133.4,159.5,132.8,160.1,132,160.1z M81.3,157.4h49.3V87H81.3V157.4z"/>
		</g>
		<g>
			<path fill="#FFFFFF" d="M118,54.7v31H94v-31c3.6,1.9,7.7,2.9,12,2.9C110.3,57.6,114.4,56.5,118,54.7z"/>
			<path fill="#010042" d="M118,87H94c-0.8,0-1.4-0.6-1.4-1.4v-31c0-0.5,0.3-0.9,0.7-1.2c0.4-0.2,0.9-0.3,1.4,0
				c3.5,1.9,7.4,2.8,11.4,2.8c4,0,7.9-0.9,11.4-2.8c0.4-0.2,0.9-0.2,1.4,0c0.4,0.2,0.7,0.7,0.7,1.2v31C119.4,86.4,118.8,87,118,87z
				 M95.4,84.3h21.3V56.8c-6.7,2.8-14.6,2.8-21.3,0V84.3z"/>
		</g>
		<g>
			<g>
				<rect x="52.9" y="96.7" fill="#FFFFFF" width="16" height="14"/>
				<path fill="#010042" d="M68.9,112.1h-16c-0.8,0-1.4-0.6-1.4-1.4v-14c0-0.8,0.6-1.4,1.4-1.4h16c0.8,0,1.4,0.6,1.4,1.4v14
					C70.3,111.4,69.7,112.1,68.9,112.1z M54.3,109.3h13.3V98H54.3V109.3z"/>
			</g>
			<g>
				<g>
					<rect x="36.9" y="85.6" fill="#29ABE2" width="16" height="56.1"/>
				</g>
				<g>
					<path fill="#010042" d="M52.9,143.1h-16c-0.8,0-1.4-0.6-1.4-1.4V85.6c0-0.8,0.6-1.4,1.4-1.4h16c0.8,0,1.4,0.6,1.4,1.4v56.1
						C54.3,142.5,53.7,143.1,52.9,143.1z M38.3,140.4h13.3V87H38.3V140.4z"/>
				</g>
			</g>
			<g>
				<path fill="#010042" d="M44.9,156.1c-0.8,0-1.4-0.6-1.4-1.4v-13c0-0.8,0.6-1.4,1.4-1.4s1.4,0.6,1.4,1.4v13
					C46.3,155.5,45.7,156.1,44.9,156.1z"/>
			</g>
			<g>
				<path fill="#010042" d="M54.9,173.2c-0.8,0-1.4-0.6-1.4-1.4V161l-8.6-5l-8.6,5v10.8c0,0.8-0.6,1.4-1.4,1.4s-1.4-0.6-1.4-1.4
					v-11.6c0-0.5,0.3-0.9,0.7-1.2l10-5.8c0.4-0.2,1-0.2,1.4,0l10,5.8c0.4,0.2,0.7,0.7,0.7,1.2v11.6
					C56.3,172.6,55.7,173.2,54.9,173.2z"/>
			</g>
		</g>
		<g>
			<g>
				<rect x="143.1" y="96.7" fill="#FFFFFF" width="16" height="14"/>
				<path fill="#010042" d="M159.1,112.1h-16c-0.8,0-1.4-0.6-1.4-1.4v-14c0-0.8,0.6-1.4,1.4-1.4h16c0.8,0,1.4,0.6,1.4,1.4v14
					C160.5,111.4,159.9,112.1,159.1,112.1z M144.4,109.3h13.3V98h-13.3V109.3z"/>
			</g>
			<g>
				<g>
					<rect x="159.1" y="85.6" fill="#29ABE2" width="16" height="56.1"/>
				</g>
				<g>
					<path fill="#010042" d="M175.1,143.1h-16c-0.8,0-1.4-0.6-1.4-1.4V85.6c0-0.8,0.6-1.4,1.4-1.4h16c0.8,0,1.4,0.6,1.4,1.4v56.1
						C176.5,142.5,175.9,143.1,175.1,143.1z M160.5,140.4h13.3V87h-13.3V140.4z"/>
				</g>
			</g>
			<g>
				<path fill="#010042" d="M167.1,156.1c-0.8,0-1.4-0.6-1.4-1.4v-13c0-0.8,0.6-1.4,1.4-1.4c0.8,0,1.4,0.6,1.4,1.4v13
					C168.5,155.5,167.9,156.1,167.1,156.1z"/>
			</g>
			<g>
				<path fill="#010042" d="M177.1,173.2c-0.8,0-1.4-0.6-1.4-1.4V161l-8.6-5l-8.6,5v10.8c0,0.8-0.6,1.4-1.4,1.4
					c-0.8,0-1.4-0.6-1.4-1.4v-11.6c0-0.5,0.3-0.9,0.7-1.2l10-5.8c0.4-0.2,1-0.2,1.4,0l10,5.8c0.4,0.2,0.7,0.7,0.7,1.2v11.6
					C178.5,172.6,177.9,173.2,177.1,173.2z"/>
			</g>
		</g>
		<g>
			<g>
				<path fill="#010042" d="M118,71.5H94c-0.8,0-1.4-0.6-1.4-1.4c0-0.8,0.6-1.4,1.4-1.4h24c0.8,0,1.4,0.6,1.4,1.4
					C119.4,70.9,118.8,71.5,118,71.5z"/>
			</g>
		</g>
		<g>
			<g>
				<path fill="#29ABE2" d="M132,31.6c0,10-5.7,18.8-14,23.1c-3.6,1.9-7.7,2.9-12,2.9c-4.3,0-8.4-1.1-12-2.9
					c-8.3-4.3-14-13.1-14-23.1c0-14.4,11.7-26,26-26S132,17.2,132,31.6z"/>
			</g>
			<g>
				<path fill="#010042" d="M106,59c-4.4,0-8.8-1.1-12.7-3.1c-9.1-4.7-14.8-14.1-14.8-24.3c0-15.1,12.3-27.4,27.4-27.4
					c15.1,0,27.4,12.3,27.4,27.4c0,10.3-5.7,19.6-14.8,24.3C114.8,57.9,110.4,59,106,59z M106,6.9c-13.6,0-24.7,11.1-24.7,24.7
					c0,9.2,5.1,17.6,13.3,21.9c3.5,1.9,7.4,2.8,11.4,2.8c4,0,7.9-0.9,11.4-2.8c8.2-4.3,13.3-12.6,13.3-21.9
					C130.7,17.9,119.6,6.9,106,6.9z"/>
			</g>
		</g>
		<g>
			<path fill="#010042" d="M106,53c-5.5,0-9.9-4.4-9.9-9.9c0-0.8,0.6-1.4,1.4-1.4s1.4,0.6,1.4,1.4c0,3.9,3.2,7.1,7.1,7.1
				c3.9,0,7.1-3.2,7.1-7.1c0-0.8,0.6-1.4,1.4-1.4s1.4,0.6,1.4,1.4C115.9,48.6,111.5,53,106,53z"/>
		</g>
		<g>
			<path fill="#FFFFFF" d="M94,171.8v35c-3.3-3.1-7.7-4.9-12.5-4.9c-4.8,0-9.2,1.9-12.5,4.9v-35H94z"/>
			<path fill="#010042" d="M94,208.2c-0.3,0-0.7-0.1-0.9-0.4c-3.2-2.9-7.3-4.6-11.6-4.6c-4.3,0-8.4,1.6-11.6,4.6
				c-0.4,0.4-1,0.5-1.5,0.3c-0.5-0.2-0.8-0.7-0.8-1.3v-35c0-0.8,0.6-1.4,1.4-1.4h25c0.8,0,1.4,0.6,1.4,1.4v35c0,0.5-0.3,1-0.8,1.3
				C94.4,208.1,94.2,208.2,94,208.2z M81.4,200.5c4,0,7.9,1.2,11.2,3.5v-30.8H70.3v30.8C73.6,201.7,77.4,200.5,81.4,200.5z"/>
		</g>
		<g>
			<g>
				<path fill="#29ABE2" d="M99.8,220.2H63.1c0-5.3,2.2-10.1,5.8-13.4c3.3-3.1,7.7-4.9,12.5-4.9c4.8,0,9.2,1.9,12.5,4.9
					C97.6,210.1,99.8,214.9,99.8,220.2z"/>
			</g>
			<g>
				<path fill="#010042" d="M99.8,221.6H63.1c-0.8,0-1.4-0.6-1.4-1.4c0-5.5,2.3-10.7,6.3-14.4c3.7-3.4,8.4-5.3,13.4-5.3
					c5,0,9.8,1.9,13.5,5.3c4,3.7,6.3,9,6.3,14.4C101.2,221,100.6,221.6,99.8,221.6z M64.5,218.8h33.9c-0.3-4.2-2.2-8.1-5.3-11
					c-3.2-2.9-7.3-4.6-11.6-4.6c-4.3,0-8.4,1.6-11.6,4.6C66.7,210.7,64.9,214.6,64.5,218.8z"/>
			</g>
		</g>
		<g>
			<path fill="#FFFFFF" d="M143.1,171.8v35c-3.3-3.1-7.7-4.9-12.5-4.9c-4.8,0-9.2,1.9-12.5,4.9v-35H143.1z"/>
			<path fill="#010042" d="M143.1,208.2c-0.3,0-0.7-0.1-0.9-0.4c-3.2-2.9-7.3-4.6-11.6-4.6c-4.3,0-8.4,1.6-11.6,4.6
				c-0.4,0.4-1,0.5-1.5,0.3c-0.5-0.2-0.8-0.7-0.8-1.3v-35c0-0.8,0.6-1.4,1.4-1.4h25c0.8,0,1.4,0.6,1.4,1.4v35c0,0.5-0.3,1-0.8,1.3
				C143.4,208.1,143.2,208.2,143.1,208.2z M130.5,200.5c4,0,7.9,1.2,11.2,3.5v-30.8h-22.3v30.8C122.7,201.7,126.5,200.5,130.5,200.5
				z"/>
		</g>
		<g>
			<g>
				<path fill="#29ABE2" d="M149,220.2h-36.7c0-5.3,2.2-10.1,5.8-13.4c3.3-3.1,7.7-4.9,12.5-4.9c4.8,0,9.2,1.9,12.5,4.9
					C146.7,210.1,149,214.9,149,220.2z"/>
			</g>
			<g>
				<path fill="#010042" d="M149,221.6h-36.7c-0.8,0-1.4-0.6-1.4-1.4c0-5.5,2.3-10.7,6.3-14.4c3.7-3.4,8.4-5.3,13.4-5.3
					c5,0,9.8,1.9,13.5,5.3c4,3.7,6.3,9,6.3,14.4C150.3,221,149.7,221.6,149,221.6z M113.7,218.8h33.9c-0.3-4.2-2.2-8.1-5.3-11
					c-3.2-2.9-7.3-4.6-11.6-4.6c-4.3,0-8.4,1.6-11.6,4.6C115.9,210.7,114,214.6,113.7,218.8z"/>
			</g>
		</g>
		<g>
			<path fill="#010042" d="M94,190.7h-25c-0.8,0-1.4-0.6-1.4-1.4s0.6-1.4,1.4-1.4h25c0.8,0,1.4,0.6,1.4,1.4S94.7,190.7,94,190.7z"/>
		</g>
		<g>
			<path fill="#010042" d="M143.1,190.7h-25c-0.8,0-1.4-0.6-1.4-1.4s0.6-1.4,1.4-1.4h25c0.8,0,1.4,0.6,1.4,1.4
				S143.8,190.7,143.1,190.7z"/>
		</g>
	</g>
	<g>
		<circle fill="#FFFFFF" cx="106" cy="26.3" r="10.3"/>
		<path fill="#010042" d="M106,38c-6.5,0-11.7-5.2-11.7-11.7s5.2-11.7,11.7-11.7s11.7,5.2,11.7,11.7S112.5,38,106,38z M106,17.3
			c-4.9,0-8.9,4-8.9,8.9s4,8.9,8.9,8.9s8.9-4,8.9-8.9S110.9,17.3,106,17.3z"/>
	</g>
	<g>
		<circle fill="#010042" cx="106" cy="26.3" r="3.3"/>
	</g>
</g>
</svg>
